# xmcd
#
# Track frame offsets: 
#        150
#        21464
#        38232
#        54063
#        71245
#        89420
#        109458
#        127549
#        146025
#        162309
#
# Disc length: 2382 seconds
#
# Revision: 0
# Processed by: cddbd v1.5.2PL0 Copyright (c) Steve Scherf et al.
# Submitted via: ExactAudioCopyFreeDBPlugin 1.0
#
DISCID=89094c0a
DTITLE=Odyssey - Hollywood Party Tonight
DYEAR=1978
DGENRE=R&B 70's
TTITLE0=Single Again - What Time Does The Balloon Go Up
TTITLE1=Pride
TTITLE2=You Wouldn't Know A Real Live True Love If It Walked Right Up,
TTITLE2=Kissed You On The Cheek And Said Hello Baby
TTITLE3=Hey Bill
TTITLE4=Lilley And Harvey, Late To The Party Again
TTITLE5=Lucky Star
TTITLE6=Comin' Back For More
TTITLE7=I Dare Ya
TTITLE8=Single Again - What Time Does The Balloon Go Up (Single Versio
TTITLE8=n)
TTITLE9=Lucky Star (Single Version)
EXTD=
EXTT0=
EXTT1=
EXTT2=
EXTT3=
EXTT4=
EXTT5=
EXTT6=
EXTT7=
EXTT8=
EXTT9=
PLAYORDER=
